<?xml version="1.0" encoding="UTF-8"?>
<svg version="1.1" xmlns="http://www.w3.org/2000/svg" width="1024" height="1024">
<path d="M0 0 C3.68623162 3.09504353 5.78438582 6.71874904 6.65625 11.390625 C7.71036236 30.19304771 4.31369184 42.81341572 -7.34375 57.390625 C-9.58584055 59.83116801 -11.89980073 62.15288395 -14.34375 64.390625 C-6.30851212 64.21206416 0.03851307 59.73965321 5.8125 54.39453125 C12.77534359 46.82686438 14.55725799 39.18950293 15.21875 29.078125 C15.30253906 27.82386719 15.38632812 26.56960938 15.47265625 25.27734375 C15.53324219 24.32472656 15.59382812 23.37210937 15.65625 22.390625 C20.05694339 23.10684523 22.34014372 24.35086091 25.65625 27.390625 C28.45171403 32.98155306 26.56717233 40.13840407 24.69921875 45.77734375 C19.51411011 58.76924518 11.22534523 69.8075038 -1.91333008 75.50488281 C-9.63956193 78.37981911 -16.59032145 78.9452299 -24.78125 78.765625 C-26.49731445 78.76369141 -26.49731445 78.76369141 -28.24804688 78.76171875 C-33.47445186 78.70673611 -37.53322259 78.59094608 -42.34375 76.390625 C-42.88 77.23625 -43.41625 78.081875 -43.96875 78.953125 C-45.52903519 81.30975955 -47.200988 83.38735191 -49.10546875 85.47265625 C-52.85009179 89.80037386 -55.65745263 94.5839119 -58.53125 99.515625 C-59.05138672 100.39605469 -59.57152344 101.27648437 -60.10742188 102.18359375 C-61.10333091 103.87015234 -62.0947012 105.55940197 -63.08081055 107.25170898 C-64.01590184 108.8353809 -64.99627949 110.39250401 -66 111.93359375 C-68.03046918 115.64628304 -69.30147565 119.57769557 -70.65625 123.578125 C-71.11028198 124.90553711 -71.11028198 124.90553711 -71.57348633 126.25976562 C-72.19738821 128.08696506 -72.81904525 129.91493252 -73.43847656 131.74365234 C-74.2689076 134.1717897 -75.1249318 136.58873053 -75.9921875 139.00390625 C-94.84124578 192.13951349 -91.62931244 264.47921028 -73.34375 317.390625 C-73.09882813 316.81699219 -72.85390625 316.24335937 -72.6015625 315.65234375 C-69.79981584 309.285616 -66.7026294 303.10982871 -63.46875 296.953125 C-62.82256714 295.72263428 -62.82256714 295.72263428 -62.16333008 294.46728516 C-59.12972579 288.74644867 -55.90732125 283.20029095 -52.42578125 277.73828125 C-51.14849386 275.48727769 -51.14849386 275.48727769 -51.55859375 273.20703125 C-52.31613324 271.22406696 -52.31613324 271.22406696 -54.09375 269.265625 C-60.84209137 260.64274437 -63.69658042 251.37861205 -63.65625 240.578125 C-63.67236328 239.72669922 -63.68847656 238.87527344 -63.70507812 237.99804688 C-63.71253422 228.20819117 -60.97517576 221.14980667 -54.6484375 213.6875 C-50.97359485 210.02511444 -47.00864464 207.60956233 -42.34375 205.390625 C-41.63605469 205.05160156 -40.92835938 204.71257812 -40.19921875 204.36328125 C-30.98664576 200.65432329 -20.01966265 201.12546174 -10.9375 204.9453125 C-0.9967066 210.48461003 5.69048069 219.42751445 10.09375 229.765625 C11.76245874 240.51952577 11.19246462 249.57507482 5.078125 258.76171875 C3.35600698 261.06175475 1.55285278 263.23283752 -0.34375 265.390625 C-0.8903125 266.03128906 -1.436875 266.67195313 -2 267.33203125 C-9.79727984 275.84651372 -20.11029731 278.96850381 -31.34375 280.390625 C-34.50172165 280.34374553 -37.22857313 279.98143441 -40.34375 279.390625 C-40.42625 279.95394531 -40.50875 280.51726562 -40.59375 281.09765625 C-41.57797575 284.10672143 -43.22146255 285.73108141 -45.34375 288.078125 C-54.46686022 299.01714091 -59.89383308 311.36818406 -63.46875 325.07421875 C-64.34375 328.390625 -64.34375 328.390625 -65.34375 330.390625 C-65.25176726 341.727498 -63.04992511 352.89310673 -55.34375 361.390625 C-54.63025391 362.27814453 -54.63025391 362.27814453 -53.90234375 363.18359375 C-48.34024085 370.04907771 -41.59308683 375.40670593 -34.34375 380.390625 C-34.04210937 379.58818359 -34.04210937 379.58818359 -33.734375 378.76953125 C-31.75131942 375.37716932 -28.97081219 372.9496037 -26.09375 370.328125 C-25.47185791 369.75666748 -24.84996582 369.18520996 -24.20922852 368.59643555 C-18.38275347 363.30824026 -12.27966566 358.43852579 -6.02001953 353.67724609 C-4.42361043 352.45192189 -2.8497772 351.19734991 -1.27734375 349.94140625 C13.730665 338.03850275 30.33024687 328.23946068 46.60644531 318.18603516 C55.30354799 312.81251448 63.86871383 307.28310358 72.35351562 301.57958984 C76.92680722 298.51444781 81.54821756 295.59369046 86.30078125 292.8125 C91.20211725 289.85381624 95.91271235 286.59380192 100.65625 283.390625 C102.17605262 282.36825778 103.69679778 281.34728944 105.21875 280.328125 C105.92386719 279.84085938 106.62898437 279.35359375 107.35546875 278.8515625 C109.65625 277.390625 109.65625 277.390625 112.55078125 275.9921875 C115.72957073 274.35071561 118.12836453 272.93564868 120.65625 270.390625 C121.88770654 266.45513101 122.38348166 263.12081803 122.703125 259.01171875 C123.99006728 254.12239296 126.63529655 252.23208997 130.65625 249.390625 C130.10686768 249.16922852 129.55748535 248.94783203 128.99145508 248.71972656 C126.48027741 247.70201787 123.97456487 246.6714635 121.46875 245.640625 C120.60443359 245.29257812 119.74011719 244.94453125 118.84960938 244.5859375 C107.90225548 240.05599796 104.38490925 233.89875667 99.65625 223.390625 C99.28886719 222.60171875 98.92148437 221.8128125 98.54296875 221 C95.18093422 212.65068203 95.26100781 202.26788935 98.21875 193.828125 C100.94557453 188.03723616 104.90048813 184.65368253 110.65625 182.015625 C119.04476282 180.26801816 126.31941803 182.36437546 133.6953125 186.546875 C135.04965936 187.44549377 136.36018345 188.40981788 137.65625 189.390625 C137.965625 188.215 137.965625 188.215 138.28125 187.015625 C141.96103255 177.3143801 147.90069039 169.81797855 156.09375 163.515625 C163.71418767 160.170067 171.03598079 159.56451059 178.9765625 162.14453125 C189.09197555 166.24213078 194.20908061 172.51134267 198.65625 182.390625 C199.85853823 186.46110362 199.76709496 190.43089468 199.71875 194.640625 C199.71423828 195.38570312 199.70972656 196.13078125 199.70507812 196.8984375 C199.69334246 198.7292014 199.6754085 200.55992373 199.65625 202.390625 C216.9064895 198.27433169 233.19403306 177.05213911 242.34375 162.828125 C243.45292584 161.01868607 244.55729505 159.2062897 245.65625 157.390625 C246.16929687 156.59140625 246.68234375 155.7921875 247.2109375 154.96875 C250.90971365 149.10436916 253.57493038 143.03879433 256.06640625 136.58984375 C257.82733435 133.04635454 259.5877264 130.88000564 262.65625 128.390625 C266.65625 128.390625 266.65625 128.390625 269.34375 130.890625 C272.20271745 134.55641762 272.42011816 137.82540938 272.65625 142.390625 C271.89417236 142.62982666 271.13209473 142.86902832 270.34692383 143.11547852 C267.18626172 144.61335876 266.35216695 145.80675595 264.60546875 148.79296875 C263.81124512 150.12062256 263.81124512 150.12062256 263.00097656 151.47509766 C262.18064941 152.88734619 262.18064941 152.88734619 261.34375 154.328125 C260.18921123 156.25311257 259.0316823 158.17631007 257.87109375 160.09765625 C257.03940674 161.47945068 257.03940674 161.47945068 256.19091797 162.88916016 C253.29449601 167.610245 250.07368668 172.03164965 246.65625 176.390625 C245.46128906 177.92396484 245.46128906 177.92396484 244.2421875 179.48828125 C239.66053427 185.24080141 239.66053427 185.24080141 237.65625 187.390625 C236.99625 187.390625 236.33625 187.390625 235.65625 187.390625 C235.3979541 187.97489258 235.1396582 188.55916016 234.87353516 189.16113281 C233.55951864 191.56779122 232.13144985 193.14381837 230.1796875 195.0625 C229.509375 195.72636719 228.8390625 196.39023437 228.1484375 197.07421875 C227.10042969 198.09708984 227.10042969 198.09708984 226.03125 199.140625 C225.32484375 199.83800781 224.6184375 200.53539062 223.890625 201.25390625 C222.15026297 202.97074988 220.40540019 204.68274332 218.65625 206.390625 C219.36910156 206.60976563 220.08195312 206.82890625 220.81640625 207.0546875 C227.77609046 209.35897056 233.73126353 211.71484018 237.74609375 218.1328125 C240.61849325 224.51298097 240.82382014 232.18869179 238.96484375 238.87890625 C234.69676935 249.21871829 226.98217731 257.70107961 216.96484375 262.74609375 C210.56574032 265.38775046 204.91265087 266.53146058 197.96875 266.515625 C196.83050781 266.51820313 195.69226563 266.52078125 194.51953125 266.5234375 C191.65625 266.390625 191.65625 266.390625 189.65625 265.390625 C189.83542969 266.08027344 190.01460937 266.76992188 190.19921875 267.48046875 C191.76910789 274.4165244 191.76156757 278.97926591 188.65625 285.390625 C188.34816406 286.08027344 188.04007813 286.76992188 187.72265625 287.48046875 C184.04189268 294.50492962 177.40639691 298.83941592 169.96484375 301.26953125 C159.40653226 303.57462826 149.21959108 302.48713146 139.90625 296.765625 C133.24773434 291.97721123 129.1225506 285.1336732 124.65625 278.390625 C124.08261719 278.97328125 123.50898437 279.5559375 122.91796875 280.15625 C114.39601776 288.38077326 104.75322553 294.28081306 94.65625 300.390625 C93.06567977 301.36470014 91.47582107 302.33993821 89.88671875 303.31640625 C86.13874468 305.61681068 82.38419569 307.90617926 78.62695312 310.19140625 C73.62334773 313.23621667 68.63505587 316.30546752 63.65625 319.390625 C62.78162109 319.93235352 61.90699219 320.47408203 61.00585938 321.03222656 C48.75868642 328.62709058 36.55031948 336.25108609 24.65625 344.390625 C23.83688965 344.94991699 23.83688965 344.94991699 23.00097656 345.52050781 C-5.97838573 362.86993071 -5.97838573 362.86993071 -25.09375 388.828125 C-25.17625 389.34375 -25.25875 389.859375 -25.34375 390.390625 C-24.01150391 390.7928125 -24.01150391 390.7928125 -22.65234375 391.203125 C-19.53115995 392.32336098 -17.18490571 393.60954522 -14.40625 395.390625 C11.26939422 410.56834572 43.12468167 420.4091706 73.07421875 420.59375 C73.84527954 420.60085495 74.61634033 420.6079599 75.4107666 420.61528015 C100.17854376 420.8017044 100.17854376 420.8017044 124.65625 417.390625 C125.69716797 417.17019531 126.73808594 416.94976563 127.81054688 416.72265625 C144.30026086 413.10085969 159.49298111 407.78325961 174.65625 400.390625 C175.45272949 400.00616211 176.24920898 399.62169922 177.06982422 399.22558594 C203.32002933 386.40403445 226.80760906 366.23823464 243.65625 342.390625 C244.11563965 341.75914551 244.5750293 341.12766602 245.04833984 340.47705078 C264.01390549 314.29735607 274.0096711 284.71776283 280.65625 253.390625 C283.25964853 241.43807611 283.25964853 241.43807611 288.65625 237.390625 C289.64625 237.060625 290.63625 236.730625 291.65625 236.390625 C293.31514229 259.06215291 286.85065529 284.34292757 276.22265625 304.359375 C274.92007293 306.88008487 273.88258313 309.27654273 272.96875 311.953125 C271.65625 315.390625 271.65625 315.390625 269.71875 317.703125 C267.5903842 320.47645013 266.80875015 322.59864874 265.71875 325.890625 C264.13172691 330.55172432 262.41412969 333.11452476 258.65625 336.390625 C258.140625 337.298125 257.625 338.205625 257.09375 339.140625 C256.3821875 340.254375 256.3821875 340.254375 255.65625 341.390625 C255.00011719 341.50921875 254.34398437 341.6278125 253.66796875 341.75 C253.00410156 341.96140625 252.34023438 342.1728125 251.65625 342.390625 C250.59078437 344.44196971 250.59078437 344.44196971 250.03125 346.890625 C249.3671875 349.359375 249.3671875 349.359375 248.65625 351.390625 C247.99625 351.720625 247.33625 352.050625 246.65625 352.390625 C245.99625 352.060625 245.33625 351.730625 244.65625 351.390625 C244.40875 352.23625 244.16125 353.081875 243.90625 353.953125 C242.51651373 357.77489974 240.74504162 360.90930563 238.65625 364.390625 C237.66625 364.060625 236.67625 363.730625 235.65625 363.390625 C235.42550781 363.93332031 235.19476562 364.47601562 234.95703125 365.03515625 C232.81520154 369.73363644 231.32735712 371.93829376 226.65625 374.390625 C225.31201661 376.04851285 223.98006517 377.71638817 222.65625 379.390625 C193.80750812 405.7841548 157.30806014 423.68103314 118.65625 429.390625 C117.46926514 429.56795166 116.28228027 429.74527832 115.05932617 429.92797852 C105.21679685 431.32134399 95.52689892 431.75193654 85.59375 431.703125 C84.83644592 431.70163452 84.07914185 431.70014404 83.29888916 431.6986084 C70.24441219 431.65270104 57.50922068 430.81098961 44.65625 428.390625 C43.90859375 428.25140625 43.1609375 428.1121875 42.390625 427.96875 C15.89724793 422.82255445 -9.83617405 412.44952778 -31.51171875 396.2890625 C-33.86862902 395.13322164 -34.89965026 395.63158781 -37.34375 396.390625 C-38.00375 396.060625 -38.66375 395.730625 -39.34375 395.390625 C-39.42753906 394.65328125 -39.51132812 393.9159375 -39.59765625 393.15625 C-40.65146611 389.24998098 -43.21745259 387.53656114 -46.28125 385.140625 C-47.47101338 384.17175218 -48.65980513 383.20168508 -49.84765625 382.23046875 C-50.73541748 381.51286377 -50.73541748 381.51286377 -51.64111328 380.78076172 C-57.84041572 375.71927217 -63.5671681 370.38876656 -68.71484375 364.26171875 C-70.25717123 362.49007639 -71.87440725 360.92552854 -73.59375 359.328125 C-78.74089646 354.25006776 -82.79751196 348.25436017 -86.95166016 342.36376953 C-87.8413109 341.10278088 -88.73631239 339.84553931 -89.63818359 338.59326172 C-108.7352089 312.01277166 -119.74373881 280.79072568 -123.34375 248.390625 C-123.44324951 247.50028564 -123.54274902 246.60994629 -123.64526367 245.69262695 C-125.39190281 229.20823835 -123.81184938 212.73344522 -121.34375 196.390625 C-118.97623516 199.94189726 -118.85347392 202.03190518 -118.40625 206.265625 C-118.32616699 206.99177002 -118.24608398 207.71791504 -118.16357422 208.46606445 C-117.63086567 213.37046811 -117.16114397 218.28063591 -116.69140625 223.19140625 C-112.72222831 264.13314781 -104.19721836 303.3398541 -78.34375 336.390625 C-78.83420181 334.81727297 -79.32482977 333.24397571 -79.81616211 331.67089844 C-80.26122214 330.24364271 -80.70467715 328.81588575 -81.14672852 327.38769531 C-82.32192915 323.60341163 -83.52302603 319.83302696 -84.80078125 316.08203125 C-87.95811404 306.70000328 -90.45353153 297.24379829 -92.59375 287.578125 C-92.83988037 286.50143555 -93.08601074 285.42474609 -93.33959961 284.31542969 C-97.64171547 264.12503711 -97.71785404 243.54442455 -97.66160583 222.98714828 C-97.65618021 220.92662116 -97.65380275 218.86610549 -97.6517334 216.80557251 C-97.62106005 197.21768589 -97.41139514 177.783145 -94.34375 158.390625 C-94.23111816 157.59430664 -94.11848633 156.79798828 -94.00244141 155.97753906 C-89.98227557 128.85193578 -73.48929602 98.81170793 -56.7109375 77.296875 C-54.00796041 73.99723115 -54.00796041 73.99723115 -53.515625 69.92578125 C-54.45159161 67.06048725 -55.51173871 65.85043897 -57.65625 63.765625 C-61.886893 59.19618307 -63.6358721 54.30392269 -65.34375 48.390625 C-65.53453125 47.77703125 -65.7253125 47.1634375 -65.921875 46.53125 C-68.29853439 34.47190419 -66.17357241 23.76087375 -59.46484375 13.5234375 C-45.34388455 -5.2524972 -20.94144211 -14.24704668 0 0 Z M-39.65625 8.015625 C-47.46456372 12.21617073 -52.64555986 17.84635622 -55.34375 26.390625 C-57.34220931 34.16588074 -55.71268753 41.84198677 -53.34375 49.390625 C-51.85946868 51.73723791 -51.85946868 51.73723791 -50.34375 53.390625 C-50.06402344 52.40191406 -49.78429687 51.41320312 -49.49609375 50.39453125 C-49.11238981 49.05977772 -48.72825234 47.72514876 -48.34375 46.390625 C-48.16215332 45.74851074 -47.98055664 45.10639648 -47.79345703 44.44482422 C-44.79057422 34.11069459 -40.78108315 26.39705379 -33.734375 18.24609375 C-31.79564816 15.93039224 -30.59398512 14.0795729 -29.34375 11.390625 C-27.65625 10.453125 -27.65625 10.453125 -25.34375 9.390625 C-22.96830294 7.78145119 -20.65442606 6.09117873 -18.34375 4.390625 C-25.31214406 2.06782698 -33.23735784 5.04870633 -39.65625 8.015625 Z M-17.03125 14.328125 C-18.21074219 14.89402344 -19.39023437 15.45992188 -20.60546875 16.04296875 C-21.50910156 16.48769531 -22.41273438 16.93242187 -23.34375 17.390625 C-23.34375 18.050625 -23.34375 18.710625 -23.34375 19.390625 C-23.93027344 19.638125 -24.51679688 19.885625 -25.12109375 20.140625 C-27.67061375 21.57444996 -29.05492065 23.13755304 -30.90625 25.390625 C-33.01731316 27.94834963 -34.54345251 29.52376 -37.34375 31.390625 C-37.01375 32.380625 -36.68375 33.370625 -36.34375 34.390625 C-36.67375 35.050625 -37.00375 35.710625 -37.34375 36.390625 C-40.21508185 44.04011911 -41.8227694 53.301828 -39.09375 61.203125 C-37.66505338 64.66097278 -37.66505338 64.66097278 -34.34375 65.390625 C-22.54335008 60.97452441 -13.0393554 51.33133491 -7.28515625 40.375 C-4.818798 34.9466517 -4.17666425 29.80517497 -4.09375 23.890625 C-4.05507813 22.23546875 -4.05507813 22.23546875 -4.015625 20.546875 C-4.38247905 17.01808843 -5.18053889 15.18056082 -7.34375 12.390625 C-11.52008644 10.99851285 -13.13335515 12.4370671 -17.03125 14.328125 Z M154.19140625 178.6796875 C146.49113135 187.26167327 145.84823188 196.06298614 146.40332031 207.18847656 C146.92286509 211.71192628 148.66326776 215.63362741 150.5625 219.75390625 C151.65625 222.390625 151.65625 222.390625 151.65625 226.390625 C145.71478659 226.390625 145.71478659 226.390625 142.9609375 223.7890625 C137.9708934 217.29448249 135.48483092 210.79463518 134.37890625 202.72265625 C133.42989578 199.66017383 132.13882242 198.39971711 129.65625 196.390625 C127.04532267 195.06884354 127.04532267 195.06884354 124.21875 194.140625 C123.29191406 193.80546875 122.36507812 193.4703125 121.41015625 193.125 C118.63862537 192.3859251 116.50535453 192.07946 113.65625 192.390625 C109.08325599 197.09427598 107.35906174 201.06528206 107.28125 207.578125 C107.38511045 213.76128354 108.52852818 218.10155389 111.65625 223.390625 C111.97207031 224.01582031 112.28789063 224.64101563 112.61328125 225.28515625 C116.16836521 231.39670507 122.2685873 233.91920788 128.65625 236.390625 C131.81695954 237.20664931 134.94303618 237.90589116 138.16015625 238.45703125 C141.48748228 239.70152408 142.19987038 241.21695085 143.65625 244.390625 C144.39617379 248.23822871 144.28838719 250.42553005 142.12109375 253.734375 C140.8764357 255.30872686 139.59844284 256.85742438 138.28515625 258.375 C135.39630596 261.94969245 135.31098075 265.44109311 135.3828125 269.8515625 C136.06658215 276.20085213 138.34042146 281.63405397 143.15625 285.890625 C149.35452954 290.73655264 155.51355228 291.73449037 163.28515625 291.21484375 C169.39602 290.29121702 173.81546243 288.34238418 177.65625 283.390625 C179.77752923 279.7146623 180.90857299 276.39192651 180.37109375 272.12890625 C178.88216438 267.02018452 176.20483629 262.87993624 173.05859375 258.62890625 C171.40537275 255.99019976 170.54539981 253.36438441 169.65625 250.390625 C170.19403076 250.54208984 170.73181152 250.69355469 171.28588867 250.84960938 C186.16045482 254.97570262 200.64970504 258.82270266 215.0625 251.1015625 C220.88359503 247.47307993 226.43250837 243.0618499 228.65625 236.390625 C229.06735876 232.16885431 229.13168683 228.51665959 227.46875 224.578125 C222.95172412 219.12654204 217.44525428 216.20440375 210.65625 214.390625 C202.39356907 213.80432916 195.88019755 217.53102523 189.65625 222.578125 C185.66949995 225.71848168 182.67983623 226.21121121 177.65625 226.390625 C176.65625 223.390625 176.65625 223.390625 176.65625 219.390625 C178.43700796 217.08845404 180.42408893 215.25523006 182.578125 213.30078125 C188.3686819 207.97825809 189.40367977 203.1791785 189.90625 195.640625 C189.76293085 188.14503322 187.59588885 181.35132434 182.40625 175.86328125 C172.86108266 167.83085248 162.93067414 170.53956563 154.19140625 178.6796875 Z M-120.34375 204.390625 C-119.34375 206.390625 -119.34375 206.390625 -119.34375 206.390625 Z M-48.34375 221.390625 C-54.0877205 228.60740844 -53.80095202 235.44860404 -53.34375 244.390625 C-52.86706458 247.180271 -52.19291118 249.68392374 -51.34375 252.390625 C-49.97351798 249.86096589 -49.07861362 247.53629666 -48.21875 244.765625 C-46.13811881 239.11219277 -42.22605415 234.90443148 -38.34375 230.390625 C-37.73917969 229.65199219 -37.13460937 228.91335938 -36.51171875 228.15234375 C-31.68591029 222.36790969 -26.64379755 217.82397418 -19.34375 215.390625 C-19.34375 214.400625 -19.34375 213.410625 -19.34375 212.390625 C-29.69947215 211.70024352 -40.26578659 214.63627969 -48.34375 221.390625 Z M-22.59375 225.203125 C-31.73287472 234.4706931 -38.3493085 244.88547227 -39.42578125 258.046875 C-39.30984533 261.35932988 -38.14374791 263.65462817 -36.34375 266.390625 C-33.14298337 267.14627248 -33.14298337 267.14627248 -29.34375 266.390625 C-27.25144937 264.32044171 -25.65703206 262.11475927 -23.97265625 259.703125 C-22.0364701 256.95439071 -19.71677526 254.76365026 -17.34375 252.390625 C-12.3392852 245.67034369 -10.99596181 239.88292764 -11.03125 231.703125 C-11.01513672 230.94451172 -10.99902344 230.18589844 -10.98242188 229.40429688 C-10.95941553 225.15587695 -10.95941553 225.15587695 -12.67578125 221.37109375 C-17.22686497 218.69586655 -19.45268424 222.06644621 -22.59375 225.203125 Z M-1.34375 228.390625 C-1.49070312 229.49019531 -1.63765625 230.58976563 -1.7890625 231.72265625 C-3.62688914 244.25794059 -7.68056065 253.24816851 -15.34375 263.390625 C-15.01375 264.050625 -14.68375 264.710625 -14.34375 265.390625 C-7.2399853 263.1486135 -4.37382488 257.18365964 -1.0078125 250.89453125 C1.72647534 244.83449614 2.56452191 239.00199963 1.65625 232.390625 C0.71456935 230.13942735 0.71456935 230.13942735 -0.34375 228.390625 C-0.67375 228.390625 -1.00375 228.390625 -1.34375 228.390625 Z " fill="#000000" transform="translate(427.34375,271.609375)"/>
<path d="M0 0 C4.67839038 2.52679022 7.92443538 6.10582552 10.125 10.9375 C11.42550338 15.34051143 10.95959693 18.87496613 9 23 C6.71935796 26.47558922 4.25974604 29.19516225 0.75 31.4375 C-5.24455535 32.66365905 -10.82820979 33.0590965 -16.375 30.125 C-20.99333623 26.83689449 -22.72785277 22.39355573 -24 17 C-24.27537939 12.41034343 -22.57987328 10.22444787 -19.75 6.8125 C-13.81346729 0.55280926 -8.73605216 -1.68611916 0 0 Z M-15 10 C-16.73498116 13.46996232 -16.60794181 17.21507195 -16 21 C-13.72872666 24.02409364 -13.72872666 24.02409364 -11 26 C-10.67 26.33 -10.34 26.66 -10 27 C-5.38800803 26.84626693 -2.89577716 26.57852275 1 24.0625 C3.83768574 19.7172937 4.00968986 16.0484493 3 11 C1.00832478 7.88800746 -0.27090501 6.38695472 -3.9375 5.56640625 C-8.8346445 5.26033472 -11.51141128 6.40569647 -15 10 Z " fill="#000000" transform="translate(707,332)"/>
<path d="M0 0 C2.4375 -0.4375 2.4375 -0.4375 5 0 C7.47027978 2.2147336 7.94879818 3.65621635 8.4375 6.9375 C7.90475283 10.66673022 6.54808744 12.29265709 4 15 C1.625 14.6875 1.625 14.6875 -1 14 C-3.11299851 10.83050223 -3.25293119 10.49404825 -2.75 7 C-2.66234375 6.319375 -2.5746875 5.63875 -2.484375 4.9375 C-2 3 -2 3 0 0 Z " fill="#000000" transform="translate(698,340)"/>
<path d="M0 0 C2.64 0.66 5.28 1.32 8 2 C7.67 3.32 7.34 4.64 7 6 C5.35 6.33 3.7 6.66 2 7 C0 4 0 4 0 0 Z " fill="#000000" transform="translate(591,494)"/>
<path d="M0 0 C3.96 0 7.92 0 12 0 C11 4 11 4 9.25 5.75 C6.57322385 7.23709786 5.01858275 7.39718194 2 7 C1.34 6.34 0.68 5.68 0 5 C0 3.35 0 1.7 0 0 Z " fill="#000000" transform="translate(593,511)"/>
<path d="M0 0 C5.94547005 4.81299956 9.72910307 10.16719748 11.0859375 17.67578125 C11.8296391 27.15156538 8.06840631 35.52873524 2.625 43.125 C-4.59192681 50.52937946 -13.78311115 53.1635889 -23.875 53.625 C-31.39926936 53.40369796 -37.09648346 51.44070198 -42.44140625 46.03515625 C-48.11916953 39.10093596 -50.95227771 32.85697007 -50.65625 23.828125 C-49.76442138 15.25666103 -45.30719611 8.47398048 -38.8203125 2.94921875 C-25.46745519 -7.16714268 -14.71502438 -8.17501354 0 0 Z M-35.375 14.125 C-38.60407744 19.30571765 -38.82272942 24.54000053 -38.09375 30.49609375 C-36.95756654 34.65180826 -34.63082153 37.37871022 -31.375 40.125 C-26.49457191 42.56521405 -19.03892005 41.90303379 -13.9140625 40.40625 C-8.39444044 37.78390082 -4.61025611 34.22493539 -1.5 28.9375 C-0.04504184 24.00680845 -0.06196166 20.08992623 -1.375 15.125 C-4.75129002 9.42751059 -9.26481449 7.12428864 -15.375 5.125 C-22.5404667 3.69190666 -30.6289498 9.15294741 -35.375 14.125 Z " fill="#000000" transform="translate(576.375,601.875)"/>
<path d="M0 0 C2.53510672 2.28159605 2.95114595 3.60916757 3.375 7 C2.95114595 10.39083243 2.53510672 11.71840395 0 14 C-3.50268174 15.14217883 -5.33229915 15.23740475 -8.8125 14 C-11 12 -11 12 -12.0625 8.625 C-11.98768176 4.28554185 -11.06407081 2.97652593 -8 0 C-5.03475663 -1.48262169 -3.14877613 -0.83538959 0 0 Z " fill="#000000" transform="translate(516,750)"/>
</svg>
